<svg width="87" height="20" viewBox="0 0 87 20" fill="none" xmlns="http://www.w3.org/2000/svg">
<g id="logos:youtube" clip-path="url(#clip0_1693_150)">
<path id="Subtract" fill-rule="evenodd" clip-rule="evenodd" d="M26.2671 1.51134C26.6985 1.94906 27.0094 2.49382 27.1688 3.09138L27.1686 3.09155C28.0862 6.83914 27.8741 12.7581 27.1865 16.6505C27.0271 17.248 26.7162 17.7928 26.2849 18.2305C25.8535 18.6682 25.3166 18.9836 24.7277 19.1453C22.5717 19.7419 13.8947 19.7419 13.8947 19.7419C13.8947 19.7419 5.2176 19.7419 3.06163 19.1453C2.47274 18.9836 1.93586 18.6682 1.50447 18.2305C1.07308 17.7928 0.762225 17.248 0.602864 16.6505C-0.320151 12.9191 -0.0671378 6.99655 0.585022 3.10948C0.744383 2.51195 1.05524 1.9672 1.48663 1.52948C1.91802 1.09177 2.45489 0.776353 3.04379 0.614655C5.19959 0.0181035 13.8768 0 13.8768 0C13.8768 0 22.5537 0 24.7099 0.596552C25.2988 0.758223 25.8357 1.07362 26.2671 1.51134ZM18.3133 9.87102L11.1151 14.1014V5.64051L18.3133 9.87102Z" fill="white"/>
<path id="Vector" d="M83.4719 5.73097C84.4162 5.73097 85.1288 5.91165 85.6277 6.2551C86.1266 6.59872 86.4831 7.14096 86.6969 7.88234C86.9106 8.62355 86.9997 9.63579 86.9997 10.9375V13.0529H82.4206V13.7036L82.492 15.4934C82.5454 15.8911 82.6346 16.1804 82.777 16.3611C82.9197 16.542 83.1511 16.6323 83.4541 16.6323C83.8639 16.6323 84.1491 16.4698 84.2915 16.1444C84.4519 15.8189 84.5231 15.2765 84.5409 14.5353L86.9106 14.6799C86.9285 14.7884 86.9285 14.933 86.9285 15.1137C86.9285 16.2527 86.6255 17.1025 86.0019 17.6629C85.3783 18.2232 84.5231 18.5125 83.4006 18.5125C82.0465 18.5125 81.1022 18.0787 80.5676 17.2291C80.0332 16.3792 79.7481 15.0413 79.7481 13.2517V11.0641C79.8086 7.99079 80.3413 5.73993 83.4719 5.73097ZM50.5275 5.96597V15.0234C50.5275 15.5658 50.5808 15.9636 50.7056 16.1986C50.9586 16.7011 51.6143 16.5727 51.9706 16.3251C52.1763 16.184 52.3422 15.9909 52.4517 15.7648V5.96579H55.1777V18.3136H53.0396L52.808 16.7949H52.7546C52.1667 17.9339 51.2935 18.5123 50.1355 18.5123C48.353 18.5079 47.9168 17.2048 47.813 15.8813L47.8062 15.788C47.7934 15.5876 47.7858 15.3868 47.7836 15.186V5.96597H50.5273H50.5275ZM64.5855 5.96597V15.0234C64.5855 15.5658 64.6388 15.9636 64.7635 16.1986C65.0167 16.7011 65.6723 16.5727 66.0286 16.3251C66.2343 16.184 66.4001 15.9909 66.5097 15.7648V5.96579H69.2357V18.3136H67.0976L66.866 16.7949H66.8126C66.2247 17.9339 65.3515 18.5123 64.1935 18.5123C62.411 18.5079 61.9748 17.2048 61.871 15.8813L61.8642 15.788C61.8513 15.5876 61.8438 15.3868 61.8416 15.186V5.96597H64.5855ZM42.6164 5.73097C43.5073 5.73097 44.2378 5.91165 44.7724 6.29131C45.3068 6.67097 45.7167 7.24959 45.9661 8.04493C46.2155 8.84045 46.3403 9.907 46.3403 11.2268V13.0165C46.3403 14.3363 46.2155 15.3849 45.9661 16.1803C45.7167 16.976 45.3246 17.5544 44.7724 17.9341C44.2202 18.2956 43.4716 18.4944 42.5452 18.4944C41.583 18.5125 40.8346 18.3137 40.2824 17.9522C39.7301 17.5725 39.338 16.9939 39.1065 16.1986C38.8747 15.403 38.7679 14.3544 38.7679 13.0348V11.2448C38.7679 9.92493 38.8926 8.84028 39.1599 8.04476C39.4272 7.23131 39.8368 6.65269 40.4071 6.29131C40.9772 5.92959 41.7077 5.73079 42.6164 5.73079V5.73097ZM73.512 0.777344V7.28562H73.5298C73.7793 6.81562 74.0999 6.43597 74.5454 6.14666C74.9614 5.86281 75.4516 5.71174 75.9529 5.71286C76.6122 5.71286 77.1111 5.89355 77.4852 6.237C77.8594 6.59872 78.1267 7.15907 78.2869 7.93648C78.4424 8.68959 78.5308 9.73114 78.5362 11.0446L78.5364 11.1727V13.1251C78.5364 14.951 78.3048 16.307 77.8771 17.1748C77.4319 18.0425 76.7547 18.4765 75.8282 18.4765C75.3116 18.4765 74.8482 18.3499 74.4207 18.1149C74.0425 17.8913 73.729 17.5707 73.5116 17.1853L73.4763 17.1204H73.4229L73.1378 18.2956H70.8749V0.777516H73.512V0.777344ZM62.6076 1.4101V3.65165H59.8994V18.3136H57.2268V3.65183H54.5008V1.41027H62.6077L62.6076 1.4101ZM33.2265 1.4101L33.2282 1.417C33.2542 1.53441 33.6145 3.15941 34.0107 5.05269L34.042 5.20269L34.0892 5.42941L34.1208 5.58166L34.1366 5.65803L34.1683 5.81114L34.1841 5.88786L34.2155 6.04148L34.2614 6.26614C34.529 7.57717 34.7844 8.892 34.9371 9.83476H35.0085C35.1548 8.98907 35.3674 7.90683 35.5941 6.80183L35.6535 6.51321C35.6834 6.36872 35.7134 6.22424 35.7436 6.0801L35.7902 5.85648C36.098 4.39214 36.415 2.92981 36.7412 1.46959L36.7463 1.44631L36.7545 1.4101H39.4805L36.3268 12.8179V18.2956H33.6364V12.8358H33.6186L30.5005 1.40993H33.2265V1.4101ZM42.5629 7.64717C42.1887 7.64717 41.9393 7.84614 41.7791 8.262C41.6186 8.67769 41.5475 9.31045 41.5475 10.1965V14.0472C41.5475 14.9511 41.6186 15.6199 41.7612 16.0179C41.9038 16.4154 42.1711 16.6144 42.5629 16.6144C42.9371 16.6144 43.2044 16.4154 43.3648 16.0179C43.5252 15.6199 43.5964 14.9511 43.5964 14.0472V10.1963C43.5964 9.31045 43.525 8.65959 43.3648 8.26183C43.2044 7.84614 42.9371 7.64717 42.5629 7.64717ZM73.993 8.0089C73.7759 8.21234 73.6214 8.46321 73.5295 8.77683L73.512 8.84045V15.8549C73.7329 16.2346 74.0465 16.4877 74.5988 16.5058C74.8839 16.5058 75.1153 16.3973 75.2938 16.1804C75.4718 15.9636 75.5966 15.6018 75.6678 15.0956C75.7362 14.6098 75.7719 13.9404 75.7746 13.088V11.3715C75.7746 10.3953 75.739 9.65407 75.6856 9.12976C75.6142 8.60545 75.5254 8.22579 75.365 8.0089C75.0549 7.55683 74.385 7.56234 73.993 8.0089ZM83.4186 7.59303C83.1156 7.61114 82.9017 7.70148 82.777 7.86424C82.6346 8.04493 82.5454 8.31614 82.492 8.7139C82.4395 9.10355 82.4215 10.4656 82.4206 10.5201V11.4077H84.4162V10.6249V10.6399C84.415 10.9136 84.4094 10.4811 84.3972 9.95028L84.3955 9.8789C84.3842 9.41234 84.3679 8.89217 84.345 8.7139C84.2915 8.29803 84.2023 8.00872 84.0599 7.84614C83.9173 7.68338 83.7035 7.59303 83.4184 7.59303H83.4186Z" fill="white"/>
</g>
<defs>
<clipPath id="clip0_1693_150">
<rect width="87" height="20" fill="white"/>
</clipPath>
</defs>
</svg>
